<svg xmlns="http://www.w3.org/2000/svg" viewBox="0 0 48 48"><defs><linearGradient id="mg" x1="24" y1="7" x2="24" y2="30" gradientUnits="userSpaceOnUse"><stop offset="0" stop-color="#eec368"/><stop offset="1" stop-color="#cf9a3e"/></linearGradient><linearGradient id="mr" x1="24" y1="7" x2="24" y2="30" gradientUnits="userSpaceOnUse"><stop offset="0" stop-color="#ec847b"/><stop offset="1" stop-color="#d1544b"/></linearGradient><linearGradient id="mb" x1="24" y1="18" x2="24" y2="42" gradientUnits="userSpaceOnUse"><stop offset="0" stop-color="#74a7f0"/><stop offset="1" stop-color="#3f78cf"/></linearGradient><linearGradient id="mu" x1="24" y1="18" x2="24" y2="30" gradientUnits="userSpaceOnUse"><stop offset="0" stop-color="#c2ccda"/><stop offset="1" stop-color="#8695a8"/></linearGradient></defs><polyline points="15,30 24,18 33,30" fill="none" stroke="url(#mu)" stroke-width="3.6" stroke-linejoin="round" stroke-linecap="round"/><line x1="15" y1="30" x2="9.57" y2="14.6" stroke="url(#mg)" stroke-width="3.4" stroke-linecap="round"/><line x1="33" y1="30" x2="38.43" y2="14.6" stroke="url(#mr)" stroke-width="3.4" stroke-linecap="round"/><line x1="24" y1="18" x2="24.0" y2="33.3" stroke="url(#mb)" stroke-width="3.4" stroke-linecap="round"/><circle cx="7.87" cy="9.79" r="3.4" fill="none" stroke="url(#mg)" stroke-width="2.6"/><circle cx="40.13" cy="9.79" r="3.4" fill="none" stroke="url(#mr)" stroke-width="2.6"/><circle cx="24.0" cy="38.4" r="3.4" fill="none" stroke="url(#mb)" stroke-width="2.6"/><circle cx="9" cy="13" r="0.9" fill="#7d8a9e"/><circle cx="39" cy="13" r="0.9" fill="#7d8a9e"/><circle cx="24" cy="35" r="0.9" fill="#7d8a9e"/><circle cx="15" cy="30" r="0.9" fill="#7d8a9e"/><circle cx="33" cy="30" r="0.9" fill="#7d8a9e"/><circle cx="24" cy="18" r="0.9" fill="#7d8a9e"/></svg>